<svg xmlns="http://www.w3.org/2000/svg" viewBox="0 0 960 720" role="img" aria-label="Animated bubble moon arcade background">
  <defs>
    <radialGradient id="space" cx="50%" cy="42%" r="72%"><stop offset="0" stop-color="#12112b"/><stop offset=".55" stop-color="#070817"/><stop offset="1" stop-color="#02030a"/></radialGradient>
    <radialGradient id="orb" cx="35%" cy="25%" r="75%"><stop offset="0" stop-color="#fff" stop-opacity=".34"/><stop offset=".22" stop-color="#ffb2ed" stop-opacity=".24"/><stop offset=".58" stop-color="#65dcff" stop-opacity=".13"/><stop offset="1" stop-color="#261041" stop-opacity=".05"/></radialGradient>
    <linearGradient id="rim" x1="0" y1="0" x2="1" y2="1"><stop stop-color="#ff6ee5"/><stop offset=".48" stop-color="#a993ff"/><stop offset="1" stop-color="#45d9ff"/></linearGradient>
    <filter id="glow"><feGaussianBlur stdDeviation="5" result="b"/><feMerge><feMergeNode in="b"/><feMergeNode in="SourceGraphic"/></feMerge></filter>
    <pattern id="hex" width="52" height="45" patternUnits="userSpaceOnUse"><path d="M13 1h26l13 21.5L39 44H13L0 22.5Z" fill="none" stroke="#8375ff" stroke-opacity=".18" stroke-width="1.5"/></pattern>
  </defs>
  <rect width="960" height="720" fill="url(#space)"/>
  <g fill="#fff" opacity=".58">
    <circle cx="94" cy="88" r="2"><animate attributeName="opacity" values=".25;.8;.25" dur="3.1s" repeatCount="indefinite"/></circle><circle cx="185" cy="130" r="1.5"/><circle cx="782" cy="84" r="2"><animate attributeName="opacity" values=".7;.2;.7" dur="2.7s" repeatCount="indefinite"/></circle><circle cx="868" cy="165" r="1.6"/><circle cx="715" cy="205" r="1.3"/><circle cx="252" cy="72" r="1.3"/>
  </g>
  <g opacity=".78" filter="url(#glow)">
    <circle cx="480" cy="288" r="236" fill="url(#orb)" stroke="url(#rim)" stroke-width="5"/>
    <circle cx="480" cy="288" r="198" fill="#070817" fill-opacity=".48" stroke="#c291ff" stroke-opacity=".36" stroke-width="3" stroke-dasharray="8 18"><animateTransform attributeName="transform" type="rotate" from="0 480 288" to="360 480 288" dur="34s" repeatCount="indefinite"/></circle>
    <path d="M480 105C588 105 655 178 654 286S583 471 480 471 307 397 307 287 376 105 480 105Z" fill="none" stroke="#70e8ff" stroke-opacity=".34" stroke-width="12" stroke-linecap="round" stroke-dasharray="150 54 90 76"><animateTransform attributeName="transform" type="rotate" from="0 480 288" to="-360 480 288" dur="23s" repeatCount="indefinite"/></path>
    <path d="M480 142C563 142 617 198 617 286S561 433 480 433 342 375 342 287 397 142 480 142Z" fill="none" stroke="#ff8de7" stroke-opacity=".31" stroke-width="9" stroke-linecap="round" stroke-dasharray="90 45 130 52"><animateTransform attributeName="transform" type="rotate" from="0 480 288" to="360 480 288" dur="18s" repeatCount="indefinite"/></path>
  </g>
  <g fill="url(#orb)" stroke="url(#rim)" stroke-width="2" opacity=".64">
    <circle cx="135" cy="105" r="42"><animateTransform attributeName="transform" type="translate" values="0 0;8 -7;0 0" dur="8s" repeatCount="indefinite"/></circle>
    <circle cx="815" cy="120" r="29"><animateTransform attributeName="transform" type="translate" values="0 0;-7 8;0 0" dur="7s" repeatCount="indefinite"/></circle>
    <circle cx="870" cy="265" r="17"><animateTransform attributeName="transform" type="translate" values="0 0;-5 -9;0 0" dur="6s" repeatCount="indefinite"/></circle>
  </g>
  <path d="M0 548Q480 490 960 548V720H0Z" fill="#03040c"/>
  <path d="M0 548Q480 490 960 548" fill="none" stroke="#ee75df" stroke-opacity=".42" stroke-width="3" filter="url(#glow)"/>
  <path d="M0 515H960V720H0Z" fill="url(#hex)" opacity=".75"><animateTransform attributeName="transform" type="translate" values="0 0;0 45" dur="6s" repeatCount="indefinite"/></path>
  <rect x="170" y="92" width="620" height="520" rx="150" fill="#02030a" opacity=".18"/>
</svg>
