<svg xmlns="http://www.w3.org/2000/svg" viewBox="0 0 960 720">
<defs><radialGradient id="s"><stop stop-color="#071126"/><stop offset=".7" stop-color="#010207"/></radialGradient><filter id="blur"><feGaussianBlur stdDeviation="18"/></filter><filter id="glow"><feGaussianBlur stdDeviation="4" result="b"/><feMerge><feMergeNode in="b"/><feMergeNode in="SourceGraphic"/></feMerge></filter></defs>
<rect width="960" height="720" fill="url(#s)"/>
<g filter="url(#blur)" opacity=".75"><g fill="#3d0b55"><circle cx="20" cy="80" r="110"/><circle cx="120" cy="30" r="100"/><circle cx="60" cy="670" r="130"/><circle cx="170" cy="720" r="110"/></g><g fill="#062f55"><circle cx="940" cy="70" r="115"/><circle cx="830" cy="20" r="95"/><circle cx="930" cy="650" r="135"/><circle cx="820" cy="730" r="110"/></g></g>
<g fill="none" stroke="#756cff" opacity=".25"><path d="M0 90h150l55 95-55 95H0M0 440h150l55 95-55 95H0M960 90H810l-55 95 55 95h150M960 440H810l-55 95 55 95h150"/></g>
<g fill="none" stroke-linecap="round" filter="url(#glow)"><path d="M0 170L80 150 120 205 180 175" stroke="#ff2a9d" stroke-width="6" stroke-dasharray="45 180"><animate attributeName="stroke-dashoffset" values="0;-225" dur="3.5s" repeatCount="indefinite"/></path><path d="M960 520L885 500 845 555 780 525" stroke="#087cff" stroke-width="6" stroke-dasharray="45 180"><animate attributeName="stroke-dashoffset" values="0;225" dur="4s" repeatCount="indefinite"/></path></g>
<g fill="#ffd6f1" opacity=".7"><circle cx="120" cy="740" r="6"><animate attributeName="cy" values="740;-20" dur="8s" repeatCount="indefinite"/></circle><circle cx="840" cy="700" r="5"><animate attributeName="cy" values="730;-20" dur="6s" repeatCount="indefinite"/></circle><circle cx="250" cy="720" r="4"><animate attributeName="cy" values="720;-20" dur="7s" repeatCount="indefinite"/></circle><circle cx="700" cy="760" r="7"><animate attributeName="cy" values="760;-30" dur="10s" repeatCount="indefinite"/></circle></g>
</svg>
